<svg width="48" height="48" viewBox="0 0 48 48" fill="none" xmlns="http://www.w3.org/2000/svg">
<g clip-path="url(#clip0_77_191)">
<path d="M0 0V48H48V0H0ZM11.7715 9.43652C13.6727 9.45792 15.5455 10.7695 15.627 13.04C15.6676 15.059 13.9081 16.5969 11.7217 16.6436H11.669C9.78668 16.6218 7.94848 15.2773 7.86328 13.04C7.89012 11.0435 9.56836 9.48388 11.7715 9.43652ZM32.168 18.9756C34.2582 18.9886 36.2308 19.6086 37.8516 21.2608C39.5358 23.1392 40.0765 25.7292 40.1367 28.3623V40.3389H33.2344V29.1768C33.219 27.0847 32.5024 24.5417 29.7334 24.457C28.1106 24.4743 26.9662 25.4173 26.1826 26.9942C25.9687 27.5017 25.9379 28.0851 25.9277 28.667V40.3389H19.0283C19.0547 34.5038 19.091 28.6692 19.0781 22.834C19.0781 21.1765 19.0622 20.0604 19.0283 19.4854H25.9277V22.4268C26.5134 21.5938 27.1629 20.8039 28.0341 20.168C29.2159 19.3246 30.6356 19.0012 32.168 18.9756ZM8.27052 19.4854H15.1699V40.3389H8.27052V19.4854Z" fill="#040406"/>
</g>
<defs>
<clipPath id="clip0_77_191">
<rect width="48" height="48" fill="white"/>
</clipPath>
</defs>
</svg>
