<svg width="48" height="48" viewBox="0 0 48 48" fill="none" xmlns="http://www.w3.org/2000/svg">
<g clip-path="url(#clip0_77_189)">
<path d="M0 0V13.6904H14.209C16.3949 10.8869 19.8181 9.07912 23.669 9.07912C27.52 9.07912 30.946 10.8866 33.1318 13.6904H48V0H0ZM38.4111 2.03612H42.8994C44.4972 2.03612 45.7822 3.324 45.7822 4.92188V8.68068C45.7822 10.2785 44.4972 11.5664 42.8994 11.5664H38.4111C36.8133 11.5664 35.5283 10.2786 35.5283 8.68068V4.92188C35.5283 3.32404 36.8133 2.03612 38.4111 2.03612ZM5.27052 2.08008H6.9082V11.5693H5.27052V2.08008ZM8.08592 2.08008H9.77344V11.5693H8.08592V2.08008ZM10.9512 2.08008H12.5888V11.5694H10.9512V2.08008ZM4.04296 2.33496V11.5693H2.35252V4.92188C2.35252 4.34708 2.51476 3.82252 2.83884 3.34864C3.16296 2.87508 3.56536 2.53792 4.04296 2.33496ZM23.6514 10.4385C17.8289 10.4385 13.1074 15.1388 13.1074 20.9326C13.1074 26.7265 17.8289 31.4238 23.6514 31.4238C29.4738 31.4238 34.1953 26.7265 34.1953 20.9326C34.1953 15.1388 29.4738 10.4385 23.6514 10.4385ZM23.6514 12.5684C28.294 12.5684 32.0566 16.3128 32.0566 20.9326C32.0566 25.5524 28.294 29.2969 23.6514 29.2969C19.0087 29.2969 15.2461 25.5524 15.2461 20.9326C15.2461 16.3128 19.0088 12.5684 23.6514 12.5684ZM0 15.6299V48H48V15.6299H34.3652C35.1704 17.224 35.6221 19.0256 35.6221 20.9297C35.6221 27.4735 30.27 32.7773 23.669 32.7773C17.068 32.7773 11.7188 27.4735 11.7188 20.9297C11.7188 19.0251 12.173 17.2243 12.9785 15.6299H0Z" fill="#040406"/>
</g>
<defs>
<clipPath id="clip0_77_189">
<rect width="48" height="48" fill="white"/>
</clipPath>
</defs>
</svg>
