<svg width="48" height="48" viewBox="0 0 48 48" fill="none" xmlns="http://www.w3.org/2000/svg">
<path d="M45.3333 0H2.66667C1.19391 0 0 1.19391 0 2.66667V45.3333C0 46.8061 1.19391 48 2.66667 48H45.3333C46.8061 48 48 46.8061 48 45.3333V2.66667C48 1.19391 46.8061 0 45.3333 0Z" fill="#F5F5F5"/>
<path fill-rule="evenodd" clip-rule="evenodd" d="M2.66667 0C1.19333 0 0 1.19867 0 2.66667V45.3333C0 46.8067 1.19 48 2.66667 48H16C17.3333 48 18.0527 46.1067 18.0527 45.4747C18.0527 44.904 18.0307 43.0193 18.02 41.0207C11.3433 42.4673 9.934 38.198 9.934 38.198C8.84267 35.4327 7.26933 34.6973 7.26933 34.6973C5.092 33.2127 7.43333 33.2427 7.43333 33.2427C9.84333 33.4113 11.1127 35.708 11.1127 35.708C13.2527 39.366 16.7273 38.308 18.0967 37.6973C18.312 36.1507 18.934 35.0953 19.6207 34.4973C14.29 33.8927 8.686 31.8413 8.686 22.6747C8.686 20.0627 9.62333 17.928 11.1593 16.2527C10.9093 15.6507 10.088 13.2173 11.3913 9.922C11.3913 9.922 13.4067 9.27867 17.9927 12.374C19.9073 11.844 21.9607 11.578 24 11.5693C26.04 11.578 28.0947 11.844 30.0127 12.374C34.5933 9.27867 36.606 9.922 36.606 9.922C37.9127 13.2173 37.0907 15.6507 36.8413 16.2527C38.38 17.9287 39.3113 20.0627 39.3113 22.6747C39.3113 31.8633 33.6967 33.8867 28.3527 34.4787C29.2133 35.2213 29.9807 36.6773 29.9807 38.9093C29.9807 42.1107 29.9527 44.6867 29.9527 45.4747C29.9527 46.1113 29.9527 48 32 48H45.332C46.0392 47.9995 46.7173 47.7184 47.2175 47.2185C47.7177 46.7185 47.9991 46.0405 48 45.3333V2.66667C48 1.19333 46.8013 0 45.3333 0H2.66667ZM9.09 34.35C9.03667 34.4687 8.85 34.504 8.67867 34.4227C8.50467 34.3447 8.40667 34.1827 8.46333 34.0633C8.51533 33.9407 8.70333 33.9067 8.87667 33.9887C9.05133 34.0667 9.15 34.2307 9.09 34.35ZM10.062 35.43C9.948 35.5367 9.724 35.4873 9.572 35.32C9.41533 35.1533 9.38533 34.93 9.502 34.8227C9.62 34.7167 9.83667 34.7667 9.994 34.9333C10.1513 35.102 10.182 35.3227 10.062 35.43ZM11.0087 36.8087C10.862 36.91 10.6213 36.8153 10.4727 36.602C10.3253 36.3887 10.3253 36.134 10.4753 36.032C10.6247 35.93 10.862 36.0213 11.012 36.2327C11.1587 36.4493 11.1587 36.704 11.0087 36.8087ZM12.3047 38.1393C12.1733 38.284 11.8933 38.2453 11.688 38.048C11.478 37.8547 11.42 37.5813 11.552 37.4367C11.6853 37.292 11.9667 37.3327 12.1733 37.528C12.3813 37.7213 12.4453 37.9967 12.3047 38.1393ZM14.0933 38.9127C14.0353 39.0993 13.7653 39.1853 13.4933 39.106C13.222 39.0233 13.0447 38.804 13.1 38.6147C13.156 38.426 13.4267 38.3373 13.7007 38.4227C13.972 38.504 14.15 38.722 14.094 38.9127H14.0933ZM16.0573 39.056C16.064 39.2533 15.834 39.4167 15.5487 39.4207C15.262 39.4267 15.0293 39.2673 15.026 39.0727C15.026 38.8733 15.2513 38.7113 15.5387 38.7067C15.824 38.7013 16.0573 38.86 16.0573 39.056ZM17.8853 38.746C17.9193 38.938 17.7213 39.136 17.438 39.1887C17.1593 39.2393 16.9013 39.1207 16.866 38.9293C16.8313 38.732 17.0327 38.5347 17.3113 38.4833C17.5953 38.434 17.85 38.55 17.8853 38.746Z" fill="#040406"/>
</svg>
