<svg width="80" height="80" viewBox="0 0 80 80" fill="none" xmlns="http://www.w3.org/2000/svg">
<rect width="80" height="80" fill="black"/>
<rect x="7" y="6" width="67" height="67" fill="black" stroke="white" stroke-width="4"/>
<path d="M26.673 34.08C27.553 34.08 28.253 34.2133 28.773 34.48C29.3996 34.8 29.8796 35.24 30.213 35.8C30.5596 36.36 30.733 36.9867 30.733 37.68C30.733 38.3333 30.5596 38.94 30.213 39.5C29.8663 40.0467 29.393 40.48 28.793 40.8C29.513 41.0533 30.1196 41.4933 30.613 42.12C31.1063 42.7467 31.353 43.4533 31.353 44.24C31.353 44.9333 31.173 45.5733 30.813 46.16C30.4663 46.7333 29.9996 47.1867 29.413 47.52C29.1196 47.68 28.793 47.8 28.433 47.88C28.073 47.96 27.593 48 26.993 48H20.833V34.08H26.673ZM34.6977 39.5C34.6977 38.46 34.9577 37.4933 35.4777 36.6C35.9977 35.7067 36.6977 35 37.5777 34.48C38.471 33.96 39.4443 33.7 40.4977 33.7C41.551 33.7 42.5177 33.96 43.3977 34.48C44.291 35 44.9977 35.7067 45.5177 36.6C46.0377 37.4933 46.2977 38.46 46.2977 39.5V42.58C46.2977 43.62 46.0377 44.5867 45.5177 45.48C44.9977 46.3733 44.291 47.08 43.3977 47.6C42.5177 48.12 41.551 48.38 40.4977 48.38C39.4443 48.38 38.471 48.12 37.5777 47.6C36.6977 47.08 35.9977 46.3733 35.4777 45.48C34.9577 44.5867 34.6977 43.62 34.6977 42.58V39.5ZM38.3377 42.58C38.3377 43.22 38.5377 43.7667 38.9377 44.22C39.3377 44.6733 39.8577 44.9 40.4977 44.9C41.1243 44.9 41.6377 44.6733 42.0377 44.22C42.4377 43.7667 42.6377 43.22 42.6377 42.58V39.48C42.6377 38.8267 42.4377 38.28 42.0377 37.84C41.6377 37.4 41.1243 37.18 40.4977 37.18C39.8577 37.18 39.3377 37.4 38.9377 37.84C38.5377 38.28 38.3377 38.8267 38.3377 39.48V42.58ZM49.4023 48L54.8623 41.04L49.4023 34.08H61.2223L55.7623 41.04L61.2223 48H49.4023ZM55.3023 40.44L59.7223 34.82H50.9023L55.3023 40.44ZM59.7223 47.26L55.3023 41.64L50.9023 47.26H59.7223Z" fill="white"/>
</svg>
